<svg id="Layer_1" data-name="Layer 1" xmlns="http://www.w3.org/2000/svg" viewBox="0 0 8000 7013.13"><defs><style>.cls-1{fill:#1a584d;}.cls-2{fill:#258a79;}.cls-3{fill:#123d36;opacity:0.42;}</style></defs><title>logo3</title><polygon class="cls-1" points="6094.72 6850.92 6046.12 6849.52 5417.82 6830.72 4894.3 6034.84 5685.18 6034.84 6094.72 6850.92"/><polygon class="cls-2" points="264.14 3224.72 154.7 3475.42 494.8 4701.48 1241.68 3224.7 264.42 3224.7 264.14 3224.72"/><polygon class="cls-3" points="7872.45 4070.14 6094.72 6850.92 6046.12 6849.52 5659.78 6079.64 5637.39 6034.84 4249.19 3269.46 7483.51 3269.46 7871.05 4067.34 7872.45 4070.14"/><polygon class="cls-2" points="7509.01 3224.72 7508.82 3224.7 4274.65 3224.7 4274.66 3224.72 5685.19 6034.93 6094.72 6850.85 7897.94 4025.47 7509.01 3224.72"/><path class="cls-3" d="M7508.26,3224.79l-.2-.21L6755.37,1731.41l-21-41.4L6298,824.34l-16-12.19-26-19.6-8.21-16.4L5949.89,181.44,1789.31,178l-1522,3046.54-.21.21-24.19,48.59,974.66-1,3031.54-3h48l3231.91-3.2ZM1171.2,2478.3l5.2-10-4.4-8.6-.8-1.4,150.58-286.56h375.54L1839.9,2458.3l-5,10,5,10-12,24.39.19.6-139.58,282.16-382.94-1-146-281.16,12.4-23.59Z"/><path class="cls-1" d="M6759.77,1729.61v-.2l-20.8-41.2v-.2L6297,806v-.2l-20.8-41.4v-.2l-314.55-627.7H1810.11L1789.31,178,264.14,3224.58H7508.86ZM1834.9,2468.3l-7,14.4-127.59,257.76-383.14-1L1176.4,2468.3l-4.4-8.6-.8-1.4,150.58-286.56h375.54L1839.9,2458.3Z"/><polygon class="cls-3" points="5307.34 1221.04 4960.08 2481.59 7601.77 1377.82 6448.45 742.27 5307.34 1221.04"/><polygon class="cls-2" points="5257.51 1191.66 4910.25 2452.21 7551.94 1348.44 6398.62 712.9 5257.51 1191.66"/></svg>